<svg width="600" height="210" viewBox="0 0 600 210" fill="none" xmlns="http://www.w3.org/2000/svg">
<path d="M261.097 93.8379C255.575 93.8379 251.017 95.1431 247.51 97.6664C243.916 100.19 241.988 103.757 241.374 108.282H248.825C249.264 105.933 250.666 104.018 252.77 102.626C254.786 101.234 257.503 100.538 260.659 100.538C264.341 100.538 267.146 101.321 269.25 103.061C271.266 104.801 272.23 107.151 272.23 110.109V113.242H258.556C252.42 113.242 247.862 114.547 244.706 116.983C241.463 119.42 239.885 123.074 239.885 127.686C239.885 131.862 241.462 135.082 244.618 137.518C247.686 139.954 251.806 141.173 256.978 141.173C263.728 141.173 268.899 138.562 272.581 133.429L273.195 140.651H279.681V110.631C279.681 105.324 278.015 101.147 274.86 98.2755C271.616 95.317 266.97 93.8379 261.097 93.8379ZM272.318 121.769C272.318 125.684 271.003 128.817 268.373 131.166C265.744 133.603 262.149 134.821 257.591 134.821C254.523 134.821 252.069 134.125 250.228 132.732C248.387 131.34 247.51 129.513 247.51 127.251C247.51 122.117 251.017 119.594 257.942 119.594H272.318V121.769Z" fill="black"/>
<path d="M295.459 76.6091C294.057 76.6091 292.917 77.0442 291.953 78.0013C290.989 78.9584 290.551 80.0896 290.551 81.4818C290.551 82.874 290.989 84.0052 291.953 84.9623C292.917 85.9195 294.057 86.3545 295.459 86.3545C296.862 86.3545 298.001 85.9195 298.965 84.9623C299.93 84.0052 300.368 82.874 300.368 81.4818C300.368 80.0896 299.93 78.9584 298.965 78.0013C298.001 77.0442 296.774 76.6091 295.459 76.6091Z" fill="black"/>
<path d="M284.326 101.234H291.69V140.563H299.14V94.4466H284.326V101.234Z" fill="black"/>
<path d="M374.788 96.7089C371.457 94.7947 367.513 93.9245 363.218 93.9245C356.468 93.9245 351.209 96.5348 347.265 101.843L346.3 94.4466H339.814V158.662H347.265V133.515C348.842 135.865 350.946 137.692 353.575 138.997C356.205 140.389 359.536 141.085 363.218 141.085C367.513 141.085 371.37 140.128 374.701 138.127C378.032 136.126 380.749 133.341 382.678 129.774C384.606 126.206 385.483 122.117 385.483 117.505C385.483 112.632 384.606 108.369 382.678 104.801C380.749 101.321 378.119 98.5362 374.788 96.7089ZM373.736 129.687C370.931 132.819 367.162 134.472 362.516 134.472C359.536 134.472 356.906 133.776 354.627 132.297C352.261 130.818 350.42 128.729 349.192 126.119C347.878 123.509 347.265 120.637 347.265 117.244C347.265 114.024 347.878 111.066 349.192 108.456C350.507 105.932 352.261 103.931 354.627 102.452C356.906 101.06 359.536 100.363 362.516 100.363C367.162 100.363 370.931 101.93 373.736 105.062C376.541 108.195 377.945 112.371 377.945 117.331C377.945 122.465 376.541 126.554 373.736 129.687Z" fill="black"/>
<path d="M309.397 103.409V140.563H316.847V101.234H332.976V94.4466H318.425C313.429 94.4466 309.397 98.3622 309.397 103.409Z" fill="black"/>
<path d="M401.612 77.2184H394.162V140.563H401.612V77.2184Z" fill="black"/>
<path d="M431.24 93.8379C425.718 93.8379 421.159 95.1431 417.653 97.6664C414.059 100.19 412.131 103.757 411.517 108.282H418.968C419.406 105.933 420.809 104.018 422.913 102.626C424.929 101.234 427.646 100.538 430.802 100.538C434.483 100.538 437.288 101.321 439.392 103.061C441.408 104.801 442.373 107.151 442.373 110.109V113.242H428.698C422.562 113.242 418.004 114.547 414.848 116.983C411.605 119.42 410.027 123.074 410.027 127.686C410.027 131.862 411.605 135.082 414.761 137.518C417.829 139.954 421.948 141.173 427.12 141.173C433.869 141.173 439.041 138.562 442.723 133.429L443.336 140.651H449.823V110.631C449.823 105.324 448.158 101.147 445.002 98.2755C441.759 95.317 437.113 93.8379 431.24 93.8379ZM442.46 121.769C442.46 125.684 441.145 128.817 438.515 131.166C435.886 133.603 432.292 134.821 427.734 134.821C424.666 134.821 422.211 134.125 420.37 132.732C418.529 131.34 417.653 129.513 417.653 127.251C417.653 122.117 421.159 119.594 428.084 119.594H442.46V121.769Z" fill="black"/>
<path d="M482.257 93.8379C475.595 93.8379 470.51 96.1002 466.917 100.625L465.952 94.3599H459.466V140.477H466.917V117.418C466.917 112.284 468.231 108.108 470.686 105.149C473.14 102.191 476.646 100.625 480.942 100.625C485.062 100.625 488.129 101.93 490.32 104.366C492.424 106.89 493.476 110.544 493.476 115.33V140.564H500.927V114.895C500.927 107.673 499.174 102.278 495.843 98.9716C492.512 95.5781 487.954 93.8379 482.257 93.8379Z" fill="black"/>
<path d="M552.908 118.897C552.996 117.418 553.084 116.374 553.084 115.765C552.996 111.327 552.032 107.411 550.103 104.105C548.175 100.799 545.633 98.1881 542.389 96.5349C539.146 94.7946 535.377 93.9245 531.081 93.9245C526.786 93.9245 522.93 94.8817 519.599 96.7959C516.268 98.7972 513.638 101.582 511.885 105.149C509.957 108.717 509.08 112.806 509.08 117.505C509.08 122.117 510.044 126.293 511.972 129.774C513.901 133.428 516.531 136.213 519.95 138.127C523.456 140.128 527.4 141.085 532.046 141.085C537.306 141.085 541.776 139.519 545.457 136.561C549.139 133.602 551.418 129.774 552.295 125.075H544.756C543.967 128.033 542.39 130.296 540.111 131.949C537.744 133.689 534.938 134.472 531.52 134.472C527.224 134.472 523.718 133.08 521.001 130.383C518.371 127.685 516.881 124.031 516.793 119.506V118.897H552.908ZM521.79 103.844C524.42 101.582 527.487 100.363 531.081 100.363C535.026 100.363 538.269 101.408 540.899 103.583C543.441 105.758 544.931 108.804 545.282 112.719H517.232C517.582 109.065 519.16 106.106 521.79 103.844Z" fill="black"/>
<path fill-rule="evenodd" clip-rule="evenodd" d="M101.147 47L138.687 47.0117C141.531 47.0117 144.118 48.6556 145.32 51.2267C153.076 67.8119 181.632 128.865 193.147 153.485C194.205 155.746 194.032 158.391 192.689 160.497C191.344 162.602 189.015 163.878 186.514 163.878C183.732 163.878 176.238 163.878 170.202 163.878C164.757 163.878 159.563 161.609 155.867 157.622C152.744 154.252 149.029 150.242 146.517 147.528C144.668 145.534 142.07 144.4 139.349 144.4C132.526 144.4 106.857 144.391 99.8861 144.391C97.1649 144.391 94.5666 145.524 92.7199 147.519C90.2055 150.232 86.4906 154.24 83.3692 157.61C79.6738 161.599 74.4772 163.866 69.0327 163.866C63.2056 163.866 56.0627 163.866 53.32 163.866C50.8193 163.866 48.4904 162.591 47.1454 160.485C45.8023 158.38 45.6286 155.736 46.6867 153.473C58.2023 128.853 86.7581 67.8003 94.5139 51.215C95.7164 48.6439 98.303 47 101.147 47ZM161.199 141.356C155.416 127.453 133.789 79.8687 124.356 59.1755C123.566 57.4342 121.828 56.3162 119.911 56.3162C117.996 56.3162 116.257 57.4342 115.466 59.1755C106.037 79.8667 84.4175 127.441 78.6352 141.344C78.4322 141.845 78.4927 142.414 78.7934 142.862C79.096 143.31 79.6015 143.576 80.1423 143.576C81.5732 143.576 84.64 143.576 87.5077 143.576C90.5061 143.576 93.3368 142.203 95.1874 139.848C98.2093 136.005 102.894 130.047 105.916 126.204C107.767 123.851 110.598 122.476 113.596 122.476C116.596 122.476 123.238 122.488 126.238 122.488C129.236 122.488 132.067 123.861 133.918 126.214C136.94 130.059 141.625 136.017 144.647 139.86C146.497 142.213 149.328 143.588 152.326 143.588C155.194 143.588 158.261 143.588 159.692 143.588C160.232 143.588 160.738 143.319 161.041 142.871C161.341 142.425 161.402 141.857 161.199 141.356Z" fill="url(#paint0_linear)"/>
<defs>
<linearGradient id="paint0_linear" x1="46" y1="163.878" x2="193.834" y2="163.878" gradientUnits="userSpaceOnUse">
<stop stop-color="#A8D9CC"/>
<stop offset="0.524005" stop-color="#29328D"/>
<stop offset="1" stop-color="#AD52DD"/>
</linearGradient>
</defs>
</svg>
