<svg xmlns="http://www.w3.org/2000/svg" viewBox="-30 -30 887.1 292.5"><path fill="#1b1b1b" d="M-30-30h887.1v292.5H-30z"/><path d="M232.48 116.25c0 64.2-52.04 116.24-116.24 116.24C52.05 232.49 0 180.45 0 116.25S52.04.01 116.24.01c64.2-.01 116.24 52.04 116.24 116.24" fill="#2ab1eb"/><g fill="#fff"><path d="M24.79 86.43h62.35v-4.94h9.88v-2.28h108.36s1.24 10.67-5.7 11.02c-6.16.31-34.25 5.21-45.25 14.07-11.08 8.93-13.8 26.2 0 36.12 12.66 9.09 15.63 8.98 15.63 8.98l-.04 11.16h-23.94s-5.04-12.32-24.33-12.16c-19.28.16-25.47 12.16-25.47 12.16H74.61v-11.4s23.6-9.86 25.09-22.43c1.49-12.56-12.77-13.57-16.35-14.06-3.63-.51-36.94 1.34-58.56-26.24m530.27 77.12c0 5.32-3.03 7.98-9.1 7.98-6.19 0-9.29-2.65-9.29-7.98V98.3c0-8.05-8.12-12.09-24.36-12.09h-45.36c-16.61 0-24.91 4.03-24.91 12.09v65.25c0 5.32-2.98 7.98-8.92 7.98-6.09 0-9.12-2.65-9.12-7.98V98.3c0-17.97 15.99-26.96 47.96-26.96h34.96c32.1 0 48.14 8.99 48.14 26.96v65.25zm93.18 3.91c-2.23 2.71-4.59 4.07-7.06 4.07-2.35 0-4.45-1.22-6.32-3.7l-67.29-86.07c-1.12-1.37-1.68-2.99-1.68-4.83 0-2.11.94-3.98 2.8-5.59 1.84-1.59 3.83-2.4 5.93-2.4 1.23 0 2.44.24 3.62.74 1.17.49 2.12 1.29 2.88 2.4l60.42 79.02 60.25-79.38c1.23-1.61 3.09-2.41 5.57-2.41 1.1 0 2.28.15 3.53.46 1.23.3 2.35.86 3.34 1.66.97.8 1.82 1.67 2.51 2.6.66.93 1.02 1.89 1.02 2.88 0 1.48-.68 3.09-2.05 4.83l-67.47 85.72zm106.15-3.91c0 5.32-2.9 7.98-8.73 7.98s-8.73-2.65-8.73-7.98V84.72c0-5.08 2.79-7.61 8.36-7.61 6.06 0 9.1 2.53 9.1 7.61v78.83zm3.17-106.52c0 6.31-4.21 9.46-12.65 9.46-7.92 0-11.88-3.15-11.88-9.46 0-6.33 3.96-9.48 11.88-9.48 8.43-.01 12.65 3.14 12.65 9.48"/><path d="M820.94 176.26c-4.3-.29-5.45-.45-11.23-1.38-20.38-3.27-30.57-12.31-30.57-27.13v-92.5c0-5.14 2.98-7.72 8.92-7.72 5.95 0 8.92 2.57 8.92 7.72v92.5c0 5.91 4.19 9.89 12.6 11.96 4.52 1.1 7.15 1.58 10.47 2.07 0 0 8.35 1.09 6.89 8.49-.77 3.88-1.73 6.01-6 5.99m-433.68-60.23v20.38c0 12.77-7.72 19.61-22.35 19.61h-59.67c-15.13 0-22.97-4.68-22.97-13.1v-13.56c0-8.93 7.34-15.82 21.48-15.82h61.98c4.34 0 9.01-2.48 9.01-7.31 0-5.09-4.67-7.68-9.01-7.68h-57.9c-29.13 0-43.06 12.04-43.06 31.37v12.83c0 18.59 14.26 28.29 43.99 28.29h52.98c28.13 0 41.76-10.08 41.76-29.41v-40.52c0-19.84-13.63-30.06-41.76-30.06h-60.46c-4.34 0-9.01 2.48-9.01 7.31 0 5.09 4.67 7.68 9.01 7.68h63.25c13.5 0 21.71 5.15 22.11 15 0 0 .37 4.49.51 8 .16 3.51.11 6.99.11 6.99"/></g></svg>
