<svg xmlns="http://www.w3.org/2000/svg" width="970" height="174" fill="#151515" xmlns:v="https://vecta.io/nano">
<path fill-rule="evenodd" d="M719.24 28v117.71h-19.37v-14.36C694.82 142.50 685.78 147 673.69 147c-24.41 0-36.74-18.29-36.74-44.45 0-26.4 12.57-44.61 36.42-44.61 12.41 0 21.29 4.81 26.18 14.92V28h19.69zm-62.61 74.46c0 17.49 7.92 27.68 21.53 27.68 13.53 0 21.37-10.19 21.37-27.68 0-17.65-7.92-27.68-21.37-27.68-13.53 0-21.53 10.03-21.53 27.68zm238.26 43.25V28h19.69v44.77c4.56-8.42 12.25-14.84 26.42-14.84 18.73 0 28.98 11.23 28.98 29.61v58.17h-19.69V93.96c0-11.55-4.96-18.37-15.77-18.37-12.65 0-19.93 9.22-19.93 21.26v48.86h-19.69zm-46.71-87.78c21.13 0 32.82 10.11 36.26 23.99l-18.25 4.65c-2.32-8.18-8.08-12.75-18.73-12.75-10.16 0-14.97 4.09-14.97 9.79 0 7.99 9.53 9.29 20.60 10.81l.13.01.51.06c14.86 1.98 32.31 4.32 32.31 23.52 0 17.25-14.09 28.96-35.38 28.96-19.13 0-34.18-9.38-38.75-25.11l18.49-4.73c2.56 9.30 10.40 14.04 20.57 14.04 9.68 0 15.45-4.25 15.45-10.35 0-7.81-9.44-9.26-20.19-10.90l-.54-.08c-14.97-2.24-32.66-4.97-32.66-24.39 0-17.25 13.77-27.52 35.14-27.52zm-79.18 0c-21.29 0-34.66 9.70-39.55 25.75l19.05 4.81c2.56-8.74 8.96-13.96 19.85-13.96 10.16 0 14.81 4.49 14.81 10.35 0 7.86-8.24 8.98-20.09 10.27l-.33.03c-15.32 1.67-34.81 3.81-34.81 25.80 0 16.21 10.48 25.99 28.18 25.99 11.44 0 21.05-4.09 27.38-14.44v13.16h19.37V86.49c0-18.13-11.84-28.56-33.86-28.56zm-8.16 72.45c-8.32 0-13.29-3.21-13.29-10.51 0-9.02 7.50-9.99 17.11-11.23l.65-.08c6.40-.80 12.40-1.76 17.85-3.61v6.90c0 11.55-9.84 18.53-22.33 18.53zM627.98 97.57c0-24.31-14.49-39.64-38.19-39.64-25.14 0-40.83 17.33-40.83 45.09 0 26.4 14.09 43.97 40.43 43.97 18.97 0 31.22-9.22 37.39-21.98l-17.21-6.09c-3.20 6.01-8.80 11.47-19.53 11.47-13.77 0-20.65-9.38-21.29-21.10h59.24V97.57zm-38.51-23.03c10.96 0 18.25 5.93 18.65 20.06h-39.31c1.36-11.79 8.24-20.06 20.65-20.06zm-87.22-16.61c21.13 0 32.82 10.11 36.26 23.99l-18.25 4.65c-2.32-8.18-8.08-12.75-18.73-12.75-10.16 0-14.97 4.09-14.97 9.79 0 7.99 9.53 9.29 20.60 10.81l.13.01.51.06c14.86 1.98 32.31 4.32 32.31 23.52 0 17.25-14.09 28.96-35.38 28.96-19.13 0-34.18-9.38-38.75-25.11l18.49-4.73c2.56 9.30 10.40 14.04 20.57 14.04 9.68 0 15.45-4.25 15.45-10.35 0-7.81-9.44-9.26-20.19-10.90l-.54-.08c-14.97-2.24-32.66-4.97-32.66-24.39 0-17.25 13.77-27.52 35.14-27.52zm-79.18 0c-21.29 0-34.66 9.70-39.55 25.75l19.05 4.81c2.56-8.74 8.96-13.96 19.85-13.96 10.16 0 14.81 4.49 14.81 10.35 0 7.86-8.24 8.98-20.09 10.27l-.33.03c-15.32 1.67-34.81 3.81-34.81 25.80 0 16.21 10.48 25.99 28.18 25.99 11.44 0 21.05-4.09 27.38-14.44v13.16h19.37V86.49c0-18.13-11.85-28.56-33.86-28.56zm-8.16 72.45c-8.32 0-13.29-3.21-13.29-10.51 0-9.02 7.50-9.99 17.11-11.23l.65-.08c6.40-.80 12.41-1.76 17.85-3.61v6.90c0 11.55-9.84 18.53-22.33 18.53zM288 145.71V30.64h47.79c22.57 0 34.98 10.91 34.98 28.80 0 11.79-5.36 21.50-15.61 25.59 12.01 3.37 18.17 12.99 18.17 26.4 0 20.30-14.17 34.26-35.86 34.26H288zm46.59-96.05h-26.26v28.24h25.62c10.56 0 16.49-5.61 16.49-14.28 0-8.74-5.92-13.96-15.85-13.96zm1.04 44.21h-27.30v32.82h27.14c11.12 0 17.37-6.66 17.37-16.69 0-9.87-6.16-16.12-17.21-16.12z"/>
<path d="M164 0c22 0 39 18.23 39 39.98s-17.37 39.45-39 39.98V94c21.62.53 39 18.23 39 39.98S185.5 174 164 174H55V93.98h54.00v-14H55V0h109z"/>
<path d="M55 79.98v14H0v-14h55z"/>
</svg>
