<svg width="500" height="82" viewBox="0 -10 500 72" fill="black" fill-rule="evenodd" clip-rule="evenodd" xmlns="http://www.w3.org/2000/svg"><path d="M93.05 0H101.91C101.9 7.56 101.91 14.70 101.97 22.26C105.48 18.62 109.79 16.85 114.89 16.93C120.18 16.89 124.86 18.55 128.91 21.90C132.74 25.59 134.91 30.10 135.42 35.44C136.18 41.23 135.13 46.67 132.30 51.74C128.69 57.24 123.60 60.32 117.03 61.00C112.20 61.53 107.79 60.45 103.79 57.76C103.15 57.25 102.54 56.71 101.97 56.13C101.91 57.63 101.9 59.13 101.91 60.63H93.05V46.41C93.55 43.32 94.98 40.74 97.33 38.68C94.95 36.67 93.53 34.12 93.05 31.05V0ZM111.82 24.77C119.28 24.50 123.92 27.98 125.73 35.23C126.46 38.88 126.15 42.43 124.79 45.89C122.10 51.35 117.70 53.80 111.61 53.26C107.39 52.90 104.25 50.89 102.17 47.25C101.84 46.03 101.49 44.81 101.13 43.59C100.40 41.62 99.20 40.00 97.53 38.73C99.81 36.87 101.22 34.48 101.76 31.57C103.02 28.63 105.16 26.63 108.17 25.56C109.37 25.18 110.59 24.91 111.82 24.77Z"/><path d="M468.71 0H459.85C459.83 11.18 459.85 22.37 459.90 33.55C460.36 36.67 461.77 39.25 464.12 41.29C461.77 43.33 460.36 45.91 459.90 49.02C459.85 53.03 459.83 57.04 459.85 61.05H468.71C468.73 57.07 468.71 53.10 468.66 49.13C468.23 45.97 466.82 43.35 464.44 41.29C466.14 39.81 467.37 37.99 468.14 35.85C468.57 34.27 469.06 32.71 469.59 31.15C471.61 26.65 475.08 24.39 480.02 24.35C482.93 24.24 485.43 25.19 487.52 27.18C489.54 29.73 490.55 32.66 490.55 35.96C490.60 44.32 490.62 52.68 490.60 61.05H499.98C500.03 51.67 499.97 42.30 499.82 32.92C499.66 31.22 499.34 29.55 498.88 27.91C497.76 23.78 495.38 20.63 491.74 18.45C488.17 16.64 484.38 15.91 480.38 16.25C475.60 16.60 471.73 18.64 468.76 22.37C468.71 14.91 468.69 7.45 468.71 0Z"/><path d="M432.68 48.91V25.02H425.03V16.86H432.68V4.57H442.05V16.86H452.79V25.02H442.05V47.97C442.05 51.41 443.25 52.70 446.78 52.70H453.31V60.86H444.71C436.29 60.86 432.68 56.91 432.68 48.91Z"/><path d="M226.00 60.63C212.68 60.63 204.17 51.95 204.17 38.20C204.17 24.62 212.93 15.59 226.26 15.59C237.60 15.59 244.65 21.87 246.45 31.84H236.74C235.54 26.68 231.84 23.50 226.08 23.50C218.61 23.50 213.71 29.52 213.71 38.20C213.71 46.79 218.61 52.72 226.08 52.72C231.76 52.72 235.54 49.46 236.65 44.38H246.45C244.73 54.35 237.26 60.63 226.00 60.63Z"/><path d="M199.19 52.03H201.08V60.11H196.18C190.17 60.11 188.10 57.45 188.10 53.06C185.18 57.53 180.71 60.63 173.58 60.63C163.95 60.63 157.25 55.90 157.25 47.74C157.25 38.71 163.78 33.64 176.07 33.64H187.16V30.98C187.16 26.08 183.63 23.07 177.53 23.07C172.03 23.07 168.34 25.65 167.65 29.52H158.54C159.48 20.92 166.87 15.59 177.96 15.59C189.65 15.59 196.35 21.18 196.35 31.58V49.20C196.35 51.43 197.30 52.03 199.19 52.03ZM187.16 42.06V40.52H175.64C169.88 40.52 166.70 42.67 166.70 47.13C166.70 50.83 169.80 53.41 174.87 53.41C182.60 53.41 187.07 48.85 187.16 42.06Z"/><path d="M299.15 45.59H290.04C290.30 55.13 298.38 60.63 310.16 60.63C320.81 60.63 328.81 55.30 328.81 46.88C328.81 37.08 320.64 35.02 310.59 33.81C304.23 33.13 300.01 32.61 300.01 28.48C300.01 24.96 303.62 22.73 309.12 22.73C314.62 22.73 318.41 25.56 318.92 29.60H328.03C327.43 20.58 319.78 15.59 308.95 15.59C298.38 15.51 290.90 20.92 290.90 29.26C290.90 38.37 298.81 40.52 308.87 41.72L309.54 41.81C315.92 42.61 319.7 43.08 319.7 47.65C319.7 51.17 315.91 53.41 310.16 53.41C303.45 53.41 299.50 50.14 299.15 45.59Z"/><path d="M150.55 0H141.73V31.74C141.73 35.37 143.36 38.79 146.14 40.97C143.36 43.15 141.73 46.57 141.73 50.21V60.60H150.55V50.21C150.55 46.57 148.91 43.15 146.14 40.97C148.91 38.79 150.55 35.37 150.55 31.74V0Z"/><path d="M409.90 16.83H418.71V31.84C418.71 35.47 417.08 38.89 414.30 41.07C411.53 38.89 409.90 35.47 409.90 31.84V16.83Z"/><path d="M414.30 41.07C417.08 43.25 418.71 46.67 418.71 50.31V60.70H409.90V50.31C409.90 46.67 411.53 43.25 414.30 41.07Z"/><path d="M262.39 0H253.58L253.51 24.08C253.51 27.72 255.14 31.35 257.92 33.53C255.14 35.71 253.51 38.92 253.51 42.55L253.58 60.60H262.39L262.32 42.55C262.32 38.92 260.69 35.71 257.92 33.53C260.69 31.35 262.32 27.72 262.32 24.08L262.39 0Z"/><path d="M276.67 16.22C280.35 16.18 284.04 16.22 287.72 16.32C282.25 22.31 276.73 28.25 271.15 34.15C276.58 42.21 281.99 50.33 287.38 58.42L287.39 58.43L287.40 58.44L288.76 60.49H277.71C275.53 57.28 273.36 54.05 271.20 50.82C267.71 45.03 264.18 39.26 260.62 33.52C266.03 27.80 271.38 22.03 276.67 16.22Z"/><path d="M414.30 11.43C417.35 11.43 419.81 8.96 419.81 5.92C419.81 2.88 417.35 0.41 414.30 0.41C411.26 0.41 408.79 2.88 408.79 5.92C408.79 8.96 411.26 11.43 414.30 11.43Z"/><path d="M354.89 16.25C358.45 16.01 361.79 16.75 364.91 18.46C366.96 19.83 368.58 21.59 369.77 23.74C372.50 19.60 376.34 17.19 381.27 16.51C385.58 15.83 389.67 16.48 393.54 18.46C396.92 20.61 399.12 23.64 400.14 27.54C400.70 29.76 401.01 32.02 401.06 34.31C401.11 43.10 401.13 51.89 401.11 60.68H391.39C391.43 51.45 391.38 42.21 391.24 32.98C390.97 30.53 390.04 28.39 388.43 26.56C386.89 25.14 385.07 24.43 382.96 24.46C377.94 24.59 374.71 27.06 373.24 31.85C372.75 33.76 372.55 35.71 372.63 37.70C372.58 45.36 372.56 53.02 372.58 60.68H362.87C362.88 52.23 362.87 43.78 362.82 35.34C362.84 32.71 362.23 30.25 360.97 27.95C358.68 24.92 355.66 23.84 351.93 24.72C349.24 25.32 347.21 26.80 345.84 29.18C344.88 30.90 344.37 32.75 344.31 34.72C343.65 37.25 342.34 39.35 340.37 41.03C342.93 43.18 344.35 45.93 344.61 49.29C344.67 53.09 344.68 56.89 344.67 60.68H335.87C335.85 56.82 335.87 52.95 335.92 49.09C336.25 45.81 337.67 43.12 340.17 41.03C337.93 39.13 336.55 36.71 336.03 33.80C335.88 28.16 335.82 22.51 335.87 16.86H344.67C344.65 18.23 344.67 19.60 344.72 20.97C347.51 18.10 350.90 16.53 354.89 16.25Z"/><path d="M0.50 10.84C-1.07 7.67 1.22 3.95 4.77 3.95H69.21C72.75 3.95 75.06 7.67 73.47 10.84L66.32 25.12C65.51 26.74 63.86 27.76 62.06 27.76H11.92C10.12 27.76 8.46 26.74 7.66 25.12L0.50 10.84Z"/><path d="M55.59 49.43C57.18 52.60 54.87 56.32 51.33 56.32L22.65 56.32C19.11 56.32 16.80 52.60 18.39 49.43L25.54 35.15C26.35 33.54 28.00 32.52 29.80 32.52H44.18C45.98 32.52 47.63 33.54 48.44 35.15L55.59 49.43Z"/></svg>
