<svg xmlns="http://www.w3.org/2000/svg" viewBox="0 0 864 317.29"><defs><linearGradient id="A" x1="29.03" y1="267" x2="245.74" y2="50.28" gradientUnits="userSpaceOnUse"><stop offset="0" stop-color="#f71c9d"/><stop offset="1" stop-color="#fc8926"/></linearGradient></defs><path d="M368.9 213.4q-23.45 0-38.95-15.5-15.5-15.5-15.5-39.25 0-23.74 15.5-39.25 15.5-15.5 38.95-15.5a54.65 54.65 0 0 1 22.99 4.84 48.26 48.26 0 0 1 17.77 13.76 50.78 50.78 0 0 1 9.9 20.72h-17.53a32.78 32.78 0 0 0-12.55-16.56 35.66 35.66 0 0 0-20.57-5.97q-15.88 0-26.32 10.74-10.43 10.74-10.43 27.3 0 16.56 10.43 27.22 10.43 10.66 26.32 10.66a35.01 35.01 0 0 0 21.02-6.42 33.16 33.16 0 0 0 12.4-17.62h17.69q-4.08 18.6-18 29.72-13.91 11.11-33.12 11.11zm136.82-12.18q-12.47 12.17-31.23 12.17-18.76 0-31.23-12.17-12.47-12.17-12.48-30.63a43.1 43.1 0 0 1 5.67-21.93 40.06 40.06 0 0 1 15.73-15.35 47.84 47.84 0 0 1 44.62 0 40.08 40.08 0 0 1 15.73 15.35 43.1 43.1 0 0 1 5.67 21.93q0 18.46-12.48 30.63zm-31.23-3.85a27.59 27.59 0 0 0 13.76-3.4 24.21 24.21 0 0 0 9.45-9.53 28.01 28.01 0 0 0 3.4-13.84q0-11.64-7.48-19.21-7.48-7.57-19.13-7.56-11.64 0-19.13 7.56-7.48 7.56-7.48 19.21 0 11.65 7.48 19.21 7.47 7.56 19.12 7.56zm124.94-95.23h16.79v111.03h-12.71l-2.11-9.22q-11.79 11.19-28.89 11.19-18.45 0-30.48-12.17Q530 190.79 530 172.33q0-18.45 12.02-30.63 12.02-12.17 30.48-12.17a40.53 40.53 0 0 1 26.92 9.53zm-44.62 89.32q7.56 7.64 19.06 7.63a26.11 26.11 0 0 0 26.77-26.77 27.24 27.24 0 0 0-3.47-13.69 25.14 25.14 0 0 0-9.6-9.6 28.67 28.67 0 0 0-27.38 0 24.59 24.59 0 0 0-9.53 9.6 27.71 27.71 0 0 0-3.4 13.69q-.02 11.51 7.54 19.15zm85.01-71.39v-17.25h17.39v17.24zm.3 94.39v-81.69h16.79v81.68zm107.55-84.71h11.04v70.94q0 13.01-4.91 22.46a34.2 34.2 0 0 1-14.14 14.52q-9.22 5.06-21.78 5.06-15.58 0-26.17-7.63-10.59-7.64-13.76-21.25h16.79a18.32 18.32 0 0 0 8.69 10.28 28.55 28.55 0 0 0 14.29 3.63q10.89 0 17.69-6.65 6.8-6.65 6.8-18.15v-3.63q-11.34 9.68-27.07 9.68a38.98 38.98 0 0 1-28.66-11.72q-11.72-11.72-11.72-28.81a39.42 39.42 0 0 1 11.72-28.89 38.86 38.86 0 0 1 28.67-11.81q18 0 29.8 12.55zm-30.55 63.68a26.41 26.41 0 0 0 9.98-1.89 24.32 24.32 0 0 0 8.01-5.14 22.94 22.94 0 0 0 5.21-7.94 26.43 26.43 0 0 0 1.89-9.98q0-10.89-7.11-18-7.11-7.1-18-7.11a24.56 24.56 0 0 0-25.26 25.11 24.06 24.06 0 0 0 7.18 17.85q7.2 7.11 18.09 7.1zm133.87-63.68H864v81.68h-13.62l-1.66-9.98q-11.79 11.95-29.49 11.95-18.3 0-30.48-12.25-12.18-12.25-12.17-30.63 0-18.37 12.17-30.55 12.17-12.17 30.48-12.17 18 0 29.8 12.1zm-49.7 59.98q7.63 7.64 19.21 7.63 11.58-.01 19.06-7.63 7.48-7.63 7.48-19.21 0-11.57-7.48-19.13-7.48-7.56-19.13-7.56a27.23 27.23 0 0 0-13.69 3.47 25.12 25.12 0 0 0-9.6 9.6 27.21 27.21 0 0 0-3.47 13.69 25.95 25.95 0 0 0 7.62 19.14z" fill="#383838"/><path d="M137.39 237.96l137.39-79.32v79.32l-137.39 79.33L0 237.96V79.32L137.39 0l137.39 79.32-137.39 79.32-68.7-39.66v79.32l68.7 39.66z" fill="url(#A)"/><path d="M206.08 118.98l-68.69 39.66-68.7-39.66 68.7-39.66 68.69 39.66z" fill="#fff" opacity=".6"/></svg>
