<svg xmlns="http://www.w3.org/2000/svg" fill="#A079FF" viewBox="0 0 143 25"><path d="M6.95 14.66c.64-.19 1.68-.48 2.87-.56a10.1 10.1 0 0 1-.75-4.79c.16-1.62.74-2.98 1.3-4.13l.34-.7.44-.9c.23-.49.4-.92.48-1.33.08-.4.08-.75-.02-1.09-.1-.34-.3-.7-.7-1.1a1.67 1.67 0 0 0-1.55.37L4.18 5.09c-.29.26-.48.61-.54 1L3.2 9.05a14.64 14.64 0 0 1 3.75 5.61ZM2.99 10.4l-.1.3-2.74 6.1a1.7 1.7 0 0 0 .32 1.86l4.31 4.43a8.7 8.7 0 0 0 .88-8.68 13.68 13.68 0 0 0-2.67-4.01Z"/><path d="m5.78 23.62.23.02c.81.02 2.19.1 3.3.3.91.17 2.72.67 4.2 1.1 1.13.34 2.3-.57 2.46-1.74.12-.85.35-1.81.76-2.7a9.3 9.3 0 0 0-2.54-4.02 5.54 5.54 0 0 0-2.9-1.31 9.47 9.47 0 0 0-4.02.47 9.7 9.7 0 0 1-1.5 7.88Z"/><path d="M17.45 19.4c.93-1.4 1.6-2.5 1.94-3.1a.85.85 0 0 0-.06-.93 18.2 18.2 0 0 1-2.14-3.52c-.58-1.39-.66-3.54-.67-4.58 0-.4-.12-.79-.37-1.1L12.8 1.92c0 .19-.04.38-.08.57a7.5 7.5 0 0 1-.56 1.56l-.46.96-.33.66a10.98 10.98 0 0 0-1.18 3.75 9.21 9.21 0 0 0 .85 4.7 6.66 6.66 0 0 1 3.88 1.62 9.75 9.75 0 0 1 2.53 3.66Z"/><path fill="#000" d="M39.93 4.52c-5.98 0-10.3 3.77-10.3 8.93 0 5.15 4.32 8.92 10.3 8.92 5.96 0 10.28-3.77 10.28-8.92 0-5.16-4.32-8.93-10.28-8.93Zm0 3.5c3.6 0 6.18 2.15 6.18 5.43 0 3.27-2.58 5.42-6.18 5.42-3.61 0-6.2-2.15-6.2-5.42 0-3.28 2.59-5.43 6.2-5.43Zm15.81 12.63c.87.94 2.48 1.72 4.6 1.72 4.34 0 6.88-3 6.88-6.61 0-3.64-2.54-6.63-6.88-6.63-2.12 0-3.73.8-4.6 1.71V4.8h-3.86v17.3h3.86v-1.45Zm-.12-4.96c0-2 1.71-3.45 3.93-3.45 2.12 0 3.9 1.25 3.9 3.52s-1.78 3.5-3.9 3.5c-2.22 0-3.93-1.43-3.93-3.43v-.14ZM67.63 20c1.47 1.5 4.29 2.37 7.23 2.37 3.98 0 6.97-1.45 6.97-4.42 0-2.89-2.85-3.44-6.1-3.83-2.75-.31-3.6-.39-3.6-1.08 0-.66.87-1.07 2.51-1.07 1.98 0 3.7.6 4.85 1.67l2-2.32c-1.28-1.23-3.66-2.2-6.65-2.2-4.03 0-6.51 1.75-6.51 4.35 0 2.72 2.53 3.33 5.57 3.71 2.84.34 4.05.34 4.05 1.18 0 .8-1.06 1.14-2.8 1.14a8.24 8.24 0 0 1-5.7-2.08L67.64 20ZM83.22 8.1h3.93V4.78h-3.93v3.3Zm3.88 1.3h-3.86v12.7h3.86V9.4Zm13.18 11.25v1.45h3.86V4.8h-3.86v6.05a6.35 6.35 0 0 0-4.6-1.71c-4.34 0-6.87 2.99-6.87 6.63 0 3.62 2.53 6.6 6.87 6.6 2.12 0 3.74-.77 4.6-1.7Zm.13-4.96v.14c0 2-1.72 3.43-3.94 3.43-2.12 0-3.9-1.23-3.9-3.5s1.78-3.52 3.9-3.52c2.22 0 3.94 1.45 3.94 3.45Zm6.07-7.59h3.93V4.78h-3.93v3.3Zm3.88 1.3h-3.85v12.7h3.85V9.4Zm7.04 12.97c2.24 0 4.07-.66 5.23-1.67.65 1.2 2.2 1.93 5.02 1.4v-2.84c-1.36.29-1.64-.03-1.64-.7v-4.63c0-3.19-2.4-4.8-6.44-4.8-3.5 0-6.3 1.52-7.09 3.8l3.47.95c.39-.99 1.71-1.71 3.45-1.71 2.05 0 2.87.77 2.87 1.73v.08l-5.06.45c-3 .3-5.19 1.52-5.19 4 0 2.51 2.24 3.94 5.38 3.94Zm4.87-5.14c0 1.47-2.2 2.32-4.17 2.32-1.5 0-2.34-.44-2.34-1.26 0-.84.67-1.16 2-1.28l4.5-.45v.67Zm6.7 4.87h3.86v-6.08c0-2.19 1.2-3.47 3.3-3.47 1.98 0 3.01 1.3 3.01 3.45v6.1H143v-7.23c0-3.52-2.24-5.74-5.54-5.74a6.3 6.3 0 0 0-4.63 1.8V9.4h-3.86v12.7Z"/></svg>
