<svg id="Layer_1" data-name="Layer 1" xmlns="http://www.w3.org/2000/svg" viewBox="0 0 469.7 171.6"><defs><style>.cls-1{fill:#989ba1;}.cls-2{fill:#929497;}</style></defs><title>light logo</title><path class="cls-1" d="M176.944,79.313c.213,2.361.362,4.744.362,7.161h0C177.306,84.056,177.157,81.674,176.944,79.313Z"/><path class="cls-1" d="M61.23,78.9s-21.689,79.918,65.248,80.614A77.991,77.991,0,0,0,176.9,94.45c.211-2.076.274-4.193.32-6.315.009-.559.083-1.1.083-1.662,0-2.418-.148-4.8-.362-7.161C153.976,169.731,52.367,134.314,61.23,78.9Z"/><path class="cls-2" d="M106.184,49.235s-80.938-22.6-79.7,65.657a78.218,78.218,0,0,0,18.863,28.2c.343.329.707.64,1.059.964a78.272,78.272,0,0,0,7.4,6.029c.4.287.779.6,1.182.883a77.676,77.676,0,0,0,8.539,5.07c.858.442,1.734.845,2.61,1.256a77.183,77.183,0,0,0,7.8,3.165c.651.223,1.275.5,1.935.708a77.317,77.317,0,0,0,9.705,2.3c.992.176,2,.32,3,.458a78.24,78.24,0,0,0,10.278.8c.132,0,.26.02.392.02,2.594,0,5.155-.138,7.682-.388C16.1,142.689,50.633,41.133,106.184,49.235Z"/><path class="cls-1" d="M137.734,91.091s19.151-80.736-67.051-77.129A77.2,77.2,0,0,0,22.115,97.079C40.258,5.732,143.612,35.309,137.734,91.091Z"/><path class="cls-1" d="M96.345,125.835s81.086,10.586,76.01-66.507A77.559,77.559,0,0,0,85.163,9.815C175.516,20.906,152.033,126.625,96.345,125.835Z"/><path class="cls-1" d="M121.818,86.475a21.847,21.847,0,1,1-21.84-21.848A21.846,21.846,0,0,1,121.818,86.475Z"/><rect class="cls-1" x="379.117" y="96.66" width="8.472" height="8.472"/><rect class="cls-1" x="388.167" y="105.695" width="8.457" height="8.472"/><rect class="cls-1" x="379.117" y="114.729" width="8.472" height="8.472"/><path class="cls-1" d="M240.8,71.742V79.2h-.9a15.943,15.943,0,0,0-13.135,6.468,23.347,23.347,0,0,0-4.776,14.727v21.892h-7.463V72.538h7.463v12.24A18.864,18.864,0,0,1,240.3,71.742Z"/><path class="cls-1" d="M269.758,116.321q10.049,0,14.429-8.359h8.16a24.018,24.018,0,0,1-8.209,10.946q-5.623,4.18-14.479,4.18-11.246,0-18.31-7.463-6.866-7.263-6.866-18.21,0-11.045,6.567-18.21,6.964-7.463,18.11-7.463t18.11,7.463q6.567,7.165,6.567,18.21V100.4H252.145a18.052,18.052,0,0,0,5.473,11.344A16.83,16.83,0,0,0,269.758,116.321Zm-.6-37.813a16.469,16.469,0,0,0-11.543,4.279,17.671,17.671,0,0,0-5.373,10.647h33.833A17.687,17.687,0,0,0,280.7,82.787,16.472,16.472,0,0,0,269.161,78.508Z"/><path class="cls-1" d="M310.456,80.5q5.97-8.755,17.812-8.757,10.747,0,17.414,7.463,6.665,7.365,6.667,18.21t-6.667,18.21q-6.668,7.463-17.911,7.463t-17.314-8.856v27.763h-7.463V72.538h7.463Zm16.817-1.99q-8.06,0-12.737,5.573-4.478,5.275-4.478,13.334t4.478,13.334q4.676,5.574,12.737,5.573a16.529,16.529,0,0,0,12.936-5.573,19.354,19.354,0,0,0,4.677-13.334,19.357,19.357,0,0,0-4.677-13.334A16.533,16.533,0,0,0,327.273,78.508Z"/><path class="cls-1" d="M369.564,122.292H362.1V52.636h7.463Z"/><path class="cls-1" d="M411.455,54.428v9.752h-8.06V54.428Zm-7.762,18.11h7.463v49.754h-7.463Z"/><path class="cls-1" d="M429.464,122.292V79.105h-10.15V72.538h10.15V54.726h7.463V72.538h11.443v6.567H436.927v43.186Z"/></svg>