<svg width="112" height="24" xmlns="http://www.w3.org/2000/svg"><path d="M0 2.19C0 0.98 0.98 0 2.19 0H10.80C12.01 0 13 0.98 13 2.19V3.90C13 4.50 12.50 5 11.90 5H1.09C0.49 5 0 4.50 0 3.90V2.19Z"></path><path d="M0 9.09C0 8.49 0.49 8 1.09 8H21.80C23.01 8 24 8.98 24 10.19V15.90C24 16.50 23.50 17 22.90 17H2.19C0.98 17 0 16.01 0 14.80V9.09Z"></path><path d="M11 21.09C11 20.49 11.49 20 12.09 20H22.90C23.50 20 24 20.49 24 21.09V21.80C24 23.01 23.01 24 21.80 24H13.19C11.98 24 11 23.01 11 21.80V21.09Z"></path><path d="M37.59 14.74H39.90L44.19 21.75H49.45L44.69 14.24C47.33 13.33 48.87 11.30 48.87 8.35C48.87 4.22 45.98 2 41.33 2H33V21.75H37.59V14.74ZM37.59 10.99V5.88H41.09C43.26 5.88 44.36 6.81 44.36 8.43C44.36 10.03 43.26 10.99 41.09 10.99H37.59Z"></path><path d="M57.36 22.06C60.25 22.06 62.89 20.60 63.96 17.82L60.28 16.63C59.86 17.90 58.79 18.56 57.41 18.56C55.73 18.56 54.55 17.43 54.25 15.45H64.07V14.30C64.07 10.20 61.68 6.95 57.28 6.95C53.09 6.95 50.01 10.20 50.01 14.49C50.01 19.00 52.98 22.06 57.36 22.06ZM57.22 10.36C58.84 10.36 59.70 11.46 59.72 12.75H54.39C54.83 11.16 55.87 10.36 57.22 10.36Z"></path><path d="M66.57 17.87C66.57 20.85 68.14 21.89 71.27 21.89C72.32 21.89 73.15 21.81 73.92 21.70V18.09C73.42 18.15 73.17 18.18 72.65 18.18C71.55 18.18 70.92 17.96 70.92 16.74V10.88H73.75V7.25H70.92V3.23H66.57V7.25H64.72V10.88H66.57V17.87Z"></path><path d="M89.67 14.52C89.67 10.00 86.67 6.95 82.40 6.95C78.11 6.95 75.14 10.00 75.14 14.52C75.14 19.03 78.11 22.06 82.40 22.06C86.67 22.06 89.67 19.03 89.67 14.52ZM79.51 14.52C79.51 11.98 80.64 10.55 82.40 10.55C84.16 10.55 85.29 11.98 85.29 14.52C85.29 17.05 84.16 18.48 82.40 18.48C80.64 18.48 79.51 17.05 79.51 14.52Z"></path><path d="M105.52 14.52C105.52 10.00 102.52 6.95 98.26 6.95C93.96 6.95 90.99 10.00 90.99 14.52C90.99 19.03 93.96 22.06 98.26 22.06C102.52 22.06 105.52 19.03 105.52 14.52ZM95.37 14.52C95.37 11.98 96.50 10.55 98.26 10.55C100.02 10.55 101.15 11.98 101.15 14.52C101.15 17.05 100.02 18.48 98.26 18.48C96.50 18.48 95.37 17.05 95.37 14.52Z"></path><path d="M112 2H107.59V21.75H112V2Z"></path></svg>