<svg xmlns="http://www.w3.org/2000/svg" viewBox="0 0 312.8 55.5" xmlns:v="https://vecta.io/nano"><path fill="#ff5543" d="M34.8 53.8c-2.8.5-5.5-1.3-6-4.1L21.2 8.2c-.5-2.8 1.3-5.5 4.1-6s5.5 1.3 6 4.1l7.6 41.5c.5 2.8-1.4 5.5-4.1 6z"/><path fill="#a112ff" d="M14.9 46.7c-1.8.3-3.6-.3-4.9-1.7-1.8-2.2-1.6-5.4.6-7.2l32.1-27.3c2.2-1.8 5.4-1.6 7.2.6s1.6 5.4-.6 7.2l-32 27.3c-.7.6-1.6 1-2.4 1.1z"/><path fill="#00cbec" d="M50.8 40.1c-.9.2-1.8.1-2.6-.2L8.4 25.8c-2.7-1-4.1-3.9-3.1-6.6s3.9-4.1 6.6-3.1l39.7 14.1c2.7 1 4.1 3.9 3.1 6.6-.6 1.8-2.2 3-3.9 3.3z"/><path d="M84 35.1a3.04 3.04 0 0 0-1.1-2.4c-.7-.6-1.6-1.2-2.7-1.7l-3.6-1.6c-1.3-.5-2.5-1.2-3.6-2s-2-1.8-2.7-3-1.1-2.7-1.1-4.5c0-1.6.3-3 .8-4.1.5-1.2 1.3-2.1 2.3-2.9s2.1-1.3 3.5-1.7c1.3-.4 2.8-.6 4.5-.6a28.92 28.92 0 0 1 5.3.5c1.6.3 3.1.8 4.1 1.4l-2 5.3c-.7-.4-1.7-.8-3.1-1.1-1.4-.4-2.8-.5-4.4-.5-1.5 0-2.6.3-3.4.9s-1.2 1.4-1.2 2.4c0 .9.4 1.7 1.1 2.3s1.6 1.2 2.7 1.7l3.6 1.6c1.3.6 2.5 1.2 3.6 2s2 1.8 2.7 2.9c.7 1.2 1.1 2.6 1.1 4.3s-.3 3.2-.9 4.5-1.4 2.3-2.4 3.1-2.3 1.5-3.8 1.9-3.1.6-4.9.6c-2.3 0-4.4-.2-6.1-.7-1.8-.4-3.1-.9-3.9-1.3l2-5.4c.3.2.8.4 1.3.6s1.2.4 1.8.6c.7.2 1.4.3 2.2.5l2.3.2c1.9 0 3.3-.3 4.3-1 1.2-.6 1.7-1.5 1.7-2.8zm9.1-2.9c0-3.9 1-7 2.9-9.1s4.6-3.2 8.1-3.2c1.9 0 3.5.3 4.8.9 1.4.6 2.5 1.4 3.4 2.5a10.32 10.32 0 0 1 2 3.9c.4 1.5.7 3.2.7 5 0 3.9-1 7-2.9 9.1s-4.6 3.2-8.1 3.2c-1.9 0-3.5-.3-4.8-.9-1.4-.6-2.5-1.4-3.4-2.5a10.32 10.32 0 0 1-2-3.9c-.5-1.5-.7-3.2-.7-5zm6.2 0c0 1 .1 2 .3 2.8.2.9.5 1.6.8 2.3.4.7.9 1.2 1.5 1.5.6.4 1.3.5 2.2.5 1.6 0 2.8-.6 3.5-1.7.8-1.1 1.2-3 1.2-5.4 0-2.1-.4-3.9-1.1-5.2s-1.9-2-3.6-2c-1.5 0-2.7.6-3.5 1.7-.9 1.1-1.3 2.9-1.3 5.5zm24.8-11.6v13.2c0 1.9.2 3.3.7 4.1.4.8 1.3 1.3 2.6 1.3 1.1 0 2.1-.3 2.9-1s1.3-1.5 1.7-2.5v-15h6v16.2c0 1.3.1 2.5.2 3.7s.3 2.3.6 3.3h-4.6l-1.1-3.4h-.2c-.7 1.2-1.7 2.2-3 2.9-1.3.8-2.8 1.2-4.5 1.2-1.2 0-2.2-.2-3.2-.5-.9-.3-1.7-.8-2.3-1.5s-1.1-1.7-1.4-2.9-.5-2.8-.5-4.7V20.6h6.1zm31.4 5.6c-1-.3-1.8-.5-2.6-.5-1.1 0-2 .3-2.7.9s-1.2 1.3-1.5 2.2v15h-6V20.6h4.7l.7 3.1h.2c.5-1.1 1.2-2 2.1-2.7s2-.9 3.2-.9c.8 0 2.5.4 3.4.8l-1.5 5.3zm19.6 16.2c-.9.7-2.1 1.2-3.4 1.6s-2.7.5-4.1.5c-1.9 0-3.4-.3-4.7-.9s-2.3-1.4-3.1-2.5-1.4-2.4-1.7-3.9c-.4-1.5-.5-3.2-.5-5 0-3.9.9-7 2.7-9.1s4.3-3.2 7.7-3.2c1.7 0 3.1.1 4.1.4s2 .6 2.8 1.1l-1.4 4.9-2.1-.8c-.7-.2-1.5-.3-2.4-.3-1.7 0-2.9.6-3.8 1.7s-1.3 2.9-1.3 5.3c0 1 .1 1.9.3 2.7s.5 1.6 1 2.2c.4.6 1 1.1 1.7 1.5s1.5.5 2.4.5c1 0 1.9-.1 2.6-.4s1.3-.6 1.9-1l1.3 4.7zm21.3-.6c-.9.7-2.2 1.4-3.8 1.9s-3.3.8-5.1.8c-3.8 0-6.5-1.1-8.2-3.3s-2.6-5.2-2.6-9c0-4.1 1-7.2 2.9-9.2s4.7-3.1 8.2-3.1c1.2 0 2.3.2 3.4.5a8.47 8.47 0 0 1 3 1.5c.9.7 1.6 1.7 2.1 2.9s.8 2.7.8 4.5l-.1 2.1-.3 2.3h-14c.1 2 .6 3.4 1.5 4.4s2.4 1.5 4.4 1.5c1.3 0 2.4-.2 3.4-.6s1.8-.8 2.3-1.2l2.1 4zm-8.7-17.1c-1.6 0-2.8.5-3.5 1.4-.8.9-1.2 2.2-1.4 3.8h8.6c.1-1.7-.1-3-.8-3.9-.5-.8-1.5-1.3-2.9-1.3zm32.9 19.1c0 3.4-.9 5.9-2.7 7.5s-4.4 2.4-7.7 2.4c-2.2 0-4-.2-5.3-.5s-2.3-.6-2.9-1l1.3-4.8c.7.3 1.5.6 2.5.8s2.1.4 3.5.4c2.1 0 3.5-.5 4.3-1.4s1.1-2.2 1.1-3.8V42h-.2c-1.1 1.5-3 2.2-5.8 2.2-3 0-5.2-.9-6.7-2.8s-2.2-4.8-2.2-8.7c0-4.2 1-7.3 3-9.4s4.9-3.2 8.6-3.2c2 0 3.8.1 5.3.4s2.8.6 3.8 1v22.3zm-10.2-4.5c1.2 0 2.1-.3 2.7-.8s1.1-1.3 1.5-2.4V25.7c-1-.4-2.2-.6-3.6-.6-1.6 0-2.8.6-3.6 1.7-.9 1.2-1.3 3-1.3 5.6 0 2.3.4 4 1.1 5.2s1.8 1.7 3.2 1.7zm27.7-13.1c-1-.3-1.8-.5-2.6-.5-1.1 0-2 .3-2.7.9s-1.2 1.3-1.5 2.2v15h-6V20.6h4.7l.7 3.1h.2c.5-1.1 1.2-2 2.1-2.7s2-.9 3.2-.9c.8 0 1.7.2 2.7.5l-.8 5.6zm2.9-4.5c1.2-.6 2.1-.8 3.8-1.1s3.5-.5 5.3-.5c1.6 0 3 .2 4 .6s1.9.9 2.6 1.7c.6.7 1.1 1.6 1.3 2.6.3 1 .4 2.1.4 3.3l-.1 4.1-.2 4.1.1 3.9c.1 1.3.3 2.4.7 3.6H254l-1-3.2h0c-.6 1-1.5 1.8-2.6 2.5s-2.5 1-4.3 1c-1.1 0-2.1-.2-2.9-.5-.9-.3-1.6-.8-2.2-1.4s-1.1-1.3-1.4-2.1a7.78 7.78 0 0 1-.5-2.8c0-1.4.3-2.6 1-3.6s1.5-1.8 2.7-2.4 2.6-1 4.3-1.3 3.5-.3 5.6-.2c.2-1.7.1-3-.4-3.7-.5-.8-1.5-1.1-3.1-1.1-1.2 0-2.5.1-3.8.4s-1.9.4-2.7.8l-1.7-4.7zm7.1 17.5c1.2 0 2.2-.3 2.9-.8s1.2-1.1 1.6-1.7v-3c-1-.1-1.9-.1-2.8 0s-1.7.2-2.3.4-1.2.5-1.6.9-.6.9-.6 1.5c0 .9.3 1.5.8 2 .4.5 1.1.7 2 .7zm15-18.6h4.4l.7 2.8h.2c.8-1.2 1.8-2 2.9-2.6s2.4-.8 4-.8c2.9 0 5.1.9 6.6 2.8s2.2 4.8 2.2 8.9c0 2-.2 3.8-.7 5.4s-1.2 3-2.1 4.1-2 2-3.3 2.6-2.8.9-4.5.9a14.36 14.36 0 0 1-2.4-.2c-.6-.1-1.2-.4-1.9-.7v9.5h-6V20.6zm10.3 4.4c-1.2 0-2.1.3-2.8.9s-1.2 1.5-1.6 2.7v9.7c.4.3.9.6 1.4.8s1.2.3 2 .3c1.7 0 3-.6 3.9-1.8s1.3-3.2 1.3-6.1c0-2-.3-3.6-1-4.7-.6-1.2-1.7-1.8-3.2-1.8zm28.2 18.8V30.6c0-1.9-.3-3.3-.8-4.1s-1.5-1.3-2.9-1.3c-1 0-2 .3-2.8 1-.9.7-1.4 1.6-1.7 2.7v14.8h-6V11.3h6v11.9h.2c.7-1 1.7-1.8 2.7-2.4 1.1-.6 2.5-.9 4.1-.9 1.2 0 2.2.2 3.1.5s1.7.8 2.3 1.5 1.1 1.7 1.3 2.9.4 2.7.4 4.5v14.5h-5.9z"/></svg>