<svg viewBox="-30 -5 853 230" xmlns="http://www.w3.org/2000/svg">
<path d="M65.50 2.08C65.50 0.42 63.60 -0.50 62.28 0.49L0.99 47.47C0.50 47.85 0.21 48.43 0.21 49.06V84.16C0.21 85.80 2.06 86.74 3.39 85.78L64.68 41.02C65.19 40.65 65.50 40.05 65.50 39.41V2.08ZM73.54 157.64C58.62 160.41 44.28 150.57 41.51 135.67C38.74 120.76 48.59 106.44 63.51 103.67C78.43 100.90 92.78 110.74 95.55 125.65C98.32 140.55 88.47 154.88 73.54 157.64ZM128.14 96.87C109.48 63.95 67.67 52.39 34.74 71.05C1.82 89.70 -9.73 131.52 8.91 164.44C27.57 197.36 69.39 208.93 102.31 190.27C135.23 171.61 146.8 129.8 128.14 96.87ZM167 139.89C167 162.01 183.27 176.95 206.12 176.95C228.97 176.95 245.25 162.01 245.25 139.89V84.76H220.01V139.43C220.01 148.22 214.37 153.9 206.12 153.9C197.88 153.9 192.23 148.22 192.23 139.43V84.76H167V139.89ZM262.63 84.76V174.07H288.72V84.76H262.63ZM387.91 126.91L387.91 126.91C394.96 122.77 399.58 115.59 399.58 107.61C399.58 94.42 387.64 84.76 371.28 84.76H329.61V174.07H372.13C389.16 174.07 402.06 163.11 402.06 148.64C402.06 138.89 396.61 130.90 387.91 126.91ZM375.98 112.13H375.98C375.98 116.42 372.88 119.33 367.85 119.33H355.69V104.92H367.85C372.88 104.92 375.98 107.83 375.98 112.13ZM378.88 145.22C378.88 150.35 375.24 153.90 369.67 153.90H355.69V136.61H369.67C375.24 136.61 378.88 140.17 378.88 145.22ZM491.59 104.17L473.68 104.16L471.22 109.61C465.46 104.81 458.13 102.04 449.91 102.04C428.58 102.04 413.34 117.56 413.34 139.36C413.34 161.24 428.58 176.95 449.91 176.95C458.01 176.95 465.25 174.26 470.96 169.59L473.02 174.57H491.59V104.17ZM468.40 140.91C468.40 150.00 461.65 156.78 452.46 156.78C443.28 156.78 436.52 150.00 436.52 140.91C436.52 131.88 443.22 125.09 452.46 125.09C461.65 125.09 468.40 131.88 468.40 140.91ZM547.42 174.07H575.63L551.79 137.51L573.44 104.22H546.57L530.01 131.58V79H506.08V174.07H530.01V144.53L547.42 174.07ZM653.88 138.83L653.88 138.83C653.88 118.21 638.44 102.04 616.13 102.04C594.40 102.04 578.53 117.89 578.53 139.44C578.53 160.92 594.53 176.95 616.13 176.95C633.49 176.95 647.49 166.92 652.36 150.88H628.64C626.35 155 621.70 157.47 616.13 157.47C608.60 157.47 603.56 153.30 602.00 145.24H653.39C653.70 143.07 653.88 140.95 653.88 138.83ZM601.72 133.73C603.72 126.29 608.72 122.21 615.92 122.21C623.37 122.21 628.53 126.25 630.70 133.73H601.72ZM715.17 126.61L705.35 104.92C696.87 104.92 690.76 107.28 685.74 112.89L681.91 105.25H665.48V174.07H690.00V139.07C690.00 130.3 693.64 126.61 702.33 126.61H715.17ZM793 104.92H766.98L753.08 143.09L738.16 104.92H711.85L740.90 168.49C737.62 177.11 734.82 179.49 725.56 179.49H718.90L727.19 200C745.34 200 754.05 192.34 763.53 171.13L793 104.92Z" fill="#1F2026"/>
</svg>
