<svg viewBox="0 0 279 62" xmlns="http://www.w3.org/2000/svg"><path id="ea" d="M83.46 25.83l4.37-14.10h5.73l4.34 14.10 4.89-14.10h5.95l-8.60 24.51h-4.08L90.67 19.18 85.3 36.24h-4.08L72.61 11.72h5.95L83.46 25.83zm28.28-14.10h5.51v24.51h-5.51V11.72zm11.58 0h5.51V21.81l9.30-10.08h6.80l-9.82 10.85c.84 1.17 2.42 3.36 4.70 6.54 2.28 3.17 3.97 5.55 5.11 7.12h-6.43l-7.24-9.68-2.46 2.74v6.94h-5.51V11.72h.03zm25.04 0h5.51v24.51h-5.51V11.72zm33.69 9.09l-6.65 13.40h-3.27l-6.62-13.40v15.41h-5.51V11.72h7.46l6.36 13.48 6.4-13.48h7.43v24.51h-5.51V20.82h-.07zm29.39-9.09v4.85h-12.28v5.07h11.03v4.67h-11.03v5.07h12.69v4.82H193.7V11.72h17.76zm24.13 3.21c2.35 2.15 3.53 5.11 3.53 8.91 0 3.8-1.14 6.83-3.45 9.06-2.28 2.22-5.81 3.32-10.52 3.32h-8.42V11.72h8.71c4.45 0 7.79 1.09 10.15 3.21zm-4.00 14.57c1.36-1.27 2.02-3.10 2.02-5.51 0-2.41-.66-4.27-2.02-5.55-1.36-1.31-3.42-1.93-6.21-1.93h-3.09V31.42h3.49c2.50 0 4.45-.62 5.81-1.9zm12.32-17.79h5.51v24.51h-5.51V11.72zm29.16 24.51l-2.28-5.29h-10.33l-2.28 5.29h-5.84l10.66-24.51h5.33L279 36.24h-5.92zm-7.46-17.20l-3.09 7.12h6.18l-3.09-7.12zM82.65 47.38v2.96h4.78v1.68h-4.78v4.42h-1.84v-10.74h7.21v1.68h-5.37zm25.82 7.52c-1.10 1.06-2.42 1.57-4.04 1.57-1.61 0-2.94-.51-4.04-1.57-1.10-1.06-1.65-2.37-1.65-3.94 0-1.57.55-2.88 1.65-3.94 1.10-1.06 2.42-1.57 4.04-1.57 1.61 0 2.94.51 4.04 1.57 1.10 1.06 1.65 2.37 1.65 3.94 0 1.57-.55 2.88-1.65 3.94zm-1.32-6.68c-.73-.76-1.65-1.13-2.72-1.13-1.06 0-1.98.36-2.72 1.13a3.82 3.82 0 00-1.10 2.74c0 1.09.36 2.01 1.10 2.74.73.73 1.65 1.13 2.72 1.13 1.06 0 1.98-.36 2.72-1.13a3.82 3.82 0 001.10-2.74c0-1.09-.36-2.00-1.10-2.74zm16.95 5.73c.47.58 1.17.87 2.02.87.84 0 1.50-.29 2.02-.87.51-.58.73-1.35.73-2.33v-5.95h1.83v6.02c0 1.53-.44 2.74-1.28 3.58-.84.84-1.95 1.24-3.27 1.24s-2.42-.40-3.27-1.24c-.84-.84-1.28-2.01-1.28-3.58v-6.03h1.83v5.95c-.07.98.18 1.75.66 2.33zm26.81-8.29h1.83V56.41h-1.98l-6.10-7.81v7.81h-1.83V45.67h1.83l6.29 8.00v-8.00h-.03zm22.25 1.42c1.03.95 1.54 2.22 1.54 3.90 0 1.68-.51 2.99-1.50 3.94-.99.98-2.53 1.46-4.63 1.46h-3.56V45.67h3.71c1.91 0 3.42.47 4.45 1.42zm-.25 3.94c0-2.44-1.43-3.69-4.23-3.69h-1.83v7.34h2.02c1.32 0 2.31-.29 3.01-.91.66-.62 1.02-1.53 1.02-2.74zm14.97 2.92l-1.06 2.44h-1.94l4.74-10.74h1.95l4.74 10.74h-1.95l-1.06-2.44h-5.40zm4.67-1.68l-1.95-4.42-1.94 4.42h3.89zm17.76-4.93v9.06h-1.83v-9.06h-3.27v-1.64h8.38v1.64h-3.27zm14.52-1.68h1.83V56.41h-1.83V45.67zm23.1 9.24c-1.10 1.06-2.42 1.57-4.04 1.57-1.61 0-2.94-.51-4.04-1.57-1.10-1.06-1.65-2.37-1.65-3.94 0-1.57.55-2.88 1.65-3.94 1.10-1.06 2.42-1.57 4.04-1.57 1.61 0 2.94.51 4.04 1.57 1.10 1.06 1.65 2.37 1.65 3.94 0 1.57-.55 2.88-1.65 3.94zm-1.32-6.68c-.73-.76-1.65-1.13-2.72-1.13s-1.98.36-2.72 1.13a3.82 3.82 0 00-1.10 2.74c0 1.09.36 2.01 1.10 2.74.73.73 1.65 1.13 2.72 1.13s1.98-.36 2.72-1.13a3.82 3.82 0 001.10-2.74c0-1.09-.36-2.00-1.10-2.74zm22.62-2.55h1.84V56.41h-1.98l-6.10-7.81v7.81h-1.83V45.67h1.83l6.29 8.00-.03-8.00zM33.84 49.94c9.30-1.31 16.44-9.24 16.44-18.81 0-5.84-2.64-11.03-6.80-14.54l-9.63 9.57v23.78zm-5.40 0V26.16l-9.63-9.60a18.89 18.89 0 00-6.80 14.54c0 9.61 7.13 17.53 16.44 18.85zm19.34-35.36c4.45 4.42 6.87 10.30 6.87 16.51 0 6.21-2.46 12.13-6.87 16.51-4.45 4.42-10.37 6.83-16.62 6.83a23.54 23.54 0 01-16.62-6.83c-4.41-4.38-6.91-10.26-6.91-16.51 0-6.24 2.46-12.13 6.87-16.51.36-.36.77-.73 1.17-1.09L10.3 8.14c-.40.36-.77.73-1.17 1.09-2.86 2.85-5.11 6.13-6.65 9.82A30.56 30.56 0 000 31.09c0 4.16.81 8.22 2.46 12.02 1.58 3.69 3.82 6.97 6.65 9.82 2.87 2.85 6.18 5.07 9.89 6.61A31.13 31.13 0 0031.11 62c4.19 0 8.27-.80 12.10-2.44a31.69 31.69 0 009.89-6.61c2.86-2.85 5.11-6.13 6.65-9.82a30.56 30.56 0 002.46-12.02c0-4.16-.81-8.22-2.46-12.02-1.58-3.69-3.82-6.97-6.65-9.82-.36-.36-.77-.73-1.17-1.09l-5.33 5.33c.40.33.77.69 1.17 1.09zM31.12 0c5.37 0 9.71 4.31 9.71 9.64s-4.34 9.64-9.71 9.64c-5.37 0-9.71-4.31-9.71-9.64 0-5.33 4.34-9.64 9.71-9.64z"></path></svg>
